<?xml version="1.0" encoding="UTF-8" standalone="no"?>
<!-- Created with Inkscape (http://www.inkscape.org/) -->

<svg
   width="210mm"
   height="200mm"
   viewBox="0 0 210 200"
   version="1.1"
   id="svg5"
   xml:space="preserve"
   sodipodi:docname="orang.svg"
   inkscape:version="1.2.2 (b0a8486541, 2022-12-01)"
   xmlns:inkscape="http://www.inkscape.org/namespaces/inkscape"
   xmlns:sodipodi="http://sodipodi.sourceforge.net/DTD/sodipodi-0.dtd"
   xmlns="http://www.w3.org/2000/svg"
   xmlns:svg="http://www.w3.org/2000/svg"><sodipodi:namedview
     id="namedview7"
     pagecolor="#ffffff"
     bordercolor="#000000"
     borderopacity="0.25"
     inkscape:showpageshadow="2"
     inkscape:pageopacity="0.0"
     inkscape:pagecheckerboard="0"
     inkscape:deskcolor="#d1d1d1"
     inkscape:document-units="mm"
     showgrid="false"
     inkscape:zoom="0.41260296"
     inkscape:cx="-12.118187"
     inkscape:cy="654.38212"
     inkscape:window-width="1532"
     inkscape:window-height="785"
     inkscape:window-x="0"
     inkscape:window-y="0"
     inkscape:window-maximized="1"
     inkscape:current-layer="layer1"
     showguides="true" /><defs
     id="defs2"><inkscape:path-effect
       effect="spiro"
       id="path-effect28519"
       is_visible="true"
       lpeversion="1" /><inkscape:path-effect
       effect="spiro"
       id="path-effect13261"
       is_visible="true"
       lpeversion="1" /><inkscape:path-effect
       effect="spiro"
       id="path-effect13257"
       is_visible="true"
       lpeversion="1" /><inkscape:path-effect
       effect="spiro"
       id="path-effect13128"
       is_visible="true"
       lpeversion="1" /><inkscape:path-effect
       effect="spiro"
       id="path-effect11234"
       is_visible="true"
       lpeversion="1" /></defs><g
     inkscape:label="Layer 1"
     inkscape:groupmode="layer"
     id="layer1"><path
       style="opacity:1;fill:#d5c8a9;fill-opacity:1;stroke:none;stroke-width:0.264999;stroke-dasharray:none;stroke-opacity:1"
       d="m 96.268271,43.28465 c -1.229336,-4.221853 0.0537,2.885908 0.08016,4.328464 0.02646,1.442559 -0.05317,1.229336 -0.08016,1.843606 -0.02698,0.614273 0.908706,1.38965 1.362662,2.084076 0.453959,0.694428 0.962147,1.069022 1.442823,1.603136 0.480677,0.534115 0.64152,1.817151 0.961884,2.72533 0.32036,0.908177 -0.05317,0.0537 -0.08016,0.08016 -0.02698,0.02646 3.767372,0.72141 3.767372,0.72141 l 4.40862,-1.042037 1.36266,2.164233 2.00392,6.252228 2.4047,1.122194 4.24831,-2.244389 2.16423,0.480941 0.16032,1.843606 2.56501,4.087995 c 0,0 2.35153,0.908706 3.5269,1.362662 1.17537,0.453959 1.01558,1.122461 1.52298,1.683293 0.50739,0.560834 9.21803,-18.275742 9.21803,-18.275742 l -2.72533,-3.126113 -3.60706,0.320627 -6.89348,-8.977555 -8.65693,-3.607057 -7.77521,2.484861 -3.28642,-3.206271 -8.496617,4.248308 z"
       id="path13263" /><path
       style="opacity:1;fill:#000000;fill-opacity:1;stroke:#000000;stroke-width:0.264999;stroke-dasharray:none;stroke-opacity:1"
       d="m 95.781493,42.989671 c -0.597619,-0.300777 -1.111076,-0.766679 -1.468339,-1.332345 -0.357263,-0.565666 -0.557325,-1.229501 -0.57212,-1.898378 -0.0203,-0.917836 0.298499,-1.807823 0.396756,-2.72061 0.07189,-0.667806 0.02511,-1.342107 0.04123,-2.013577 0.01612,-0.67147 0.10061,-1.358972 0.412208,-1.953983 0.289723,-0.553239 0.75812,-0.993327 1.07691,-1.530342 0.455745,-0.767722 0.580686,-1.687346 0.963549,-2.493893 0.303276,-0.638887 0.762055,-1.19247 1.263975,-1.690695 0.501921,-0.498225 1.050155,-0.947172 1.569995,-1.426671 0.982496,-0.906251 1.863706,-1.921734 2.890646,-2.777292 1.26041,-1.050067 2.72225,-1.841943 4.25095,-2.437212 3.20886,-1.249512 6.70382,-1.64037 10.14561,-1.530344 2.54009,0.0812 5.1606,0.460342 7.31164,1.81374 1.63207,1.026872 2.89366,2.55617 3.91088,4.194275 1.1114,1.789759 1.96539,3.741909 2.4939,5.781299 0.62329,2.405104 0.79014,4.900369 1.0769,7.368321 0.19933,1.715541 0.45814,3.430748 0.45344,5.157824 -0.002,0.613969 -0.0367,1.228451 -0.003,1.841522 0.0332,0.613072 0.13756,1.231004 0.40021,1.785958 0.34097,0.720423 0.92587,1.292111 1.37678,1.94934 0.22545,0.328615 0.41957,0.683853 0.52262,1.068815 0.10306,0.384963 0.11057,0.802833 -0.029,1.17612 -0.10068,0.269307 -0.27585,0.509089 -0.49592,0.69411 -0.22007,0.18502 -0.48416,0.315693 -0.76255,0.387544 -0.55678,0.143701 -1.15893,0.0492 -1.67964,-0.194764 -0.5207,-0.24396 -0.9653,-0.629435 -1.34084,-1.064888 -0.37554,-0.435453 -0.6866,-0.921955 -0.99223,-1.409025 -1.12699,-1.796016 -2.20891,-3.63861 -3.62748,-5.214503 -1.61014,-1.788705 -3.65691,-3.208237 -5.94947,-3.940493 -2.29255,-0.732256 -4.83146,-0.75365 -7.08679,0.08629 -1.03936,0.387087 -2.01824,0.951426 -3.10002,1.196079 -0.5409,0.122327 -1.10689,0.161569 -1.6505,0.05196 -0.54361,-0.109605 -1.06427,-0.375598 -1.42753,-0.794608 -0.3484,-0.401871 -0.53388,-0.914955 -0.77793,-1.387526 -0.12203,-0.236286 -0.26114,-0.46595 -0.44001,-0.662738 -0.17888,-0.196788 -0.39995,-0.360278 -0.65248,-0.443629 -0.35133,-0.115959 -0.74081,-0.06899 -1.08654,0.06272 -0.34573,0.131709 -0.6548,0.343024 -0.95392,0.560753 -0.93371,0.679647 -1.80641,1.440699 -2.747633,2.109909 -0.941221,0.66921 -1.966479,1.251716 -3.090339,1.517572 -0.205653,0.04865 -0.413859,0.0865 -0.623475,0.113357 z"
       id="path11232"
       inkscape:path-effect="#path-effect11234"
       inkscape:original-d="m 95.781493,42.989671 c -2.154082,1.246681 -1.36004,-2.153552 -2.040459,-3.230723 -0.680415,-1.077175 0.264769,-1.813476 0.396756,-2.72061 0.131988,-0.907138 0.302557,-2.644775 0.453435,-3.96756 0.150881,-1.322781 0.718204,-1.019963 1.07691,-1.530342 0.358703,-0.510378 0.64263,-1.662332 0.963549,-2.493893 0.320918,-0.831562 1.889577,-2.07798 2.83397,-3.117366 0.944386,-1.039387 1.927366,-1.851263 2.890646,-2.777292 0.96329,-0.926025 2.83423,-1.624544 4.25095,-2.437212 1.41672,-0.81267 6.76401,-1.019966 10.14561,-1.530344 3.38161,-0.510379 4.87469,1.209426 7.31164,1.81374 2.43695,0.604316 2.60752,2.79645 3.91088,4.194275 1.30336,1.397828 1.66286,3.854463 2.4939,5.781299 0.83103,1.926834 0.7182,4.912477 1.0769,7.368321 0.35871,2.455841 0.30256,3.438813 0.45344,5.157824 0.15088,1.719009 0.26477,2.418583 0.39675,3.62748 0.13199,1.208894 1.24721,2.796448 1.87042,4.194275 0.62321,1.397827 -3.51385,-1.05775 -5.27118,-1.587023 -1.75732,-0.529272 -2.41805,-3.476071 -3.62748,-5.214503 -1.20942,-1.738433 -8.69057,-2.569201 -13.03626,-3.854199 -4.34568,-1.284997 -4.11844,0.302555 -6.17805,0.453435 -2.05962,0.150881 -1.24668,-1.662331 -1.87042,-2.493893 -0.62374,-0.831562 -1.36004,0.415914 -2.04046,0.623473 -0.68041,0.20756 -3.891715,2.418586 -5.837972,3.627481 -1.946257,1.208896 -0.415385,0.07584 -0.623475,0.113357 z" /><path
       id="path13126"
       style="opacity:1;fill:#000000;fill-opacity:1;stroke:#000000;stroke-width:0.264999;stroke-dasharray:none;stroke-opacity:1"
       d="m 96.108043,43.044061 c -0.0041,0.0296 -0.0075,0.05927 -0.01137,0.08888 0.01438,0.0051 0.02908,0.01118 0.04393,0.01809 z m 21.882897,3.286621 -8.25634,10.901144 c -0.0778,-0.490791 -0.37845,-0.941443 -0.8015,-1.201994 -0.35461,-0.218356 -0.78106,-0.302272 -1.19735,-0.290938 -0.41629,0.01133 -0.82482,0.113284 -1.22008,0.244429 -0.7905,0.26229 -1.5602,0.646798 -2.3921,0.687297 -0.5281,0.02571 -1.05175,-0.0897 -1.56579,-0.213424 -0.51405,-0.123721 -1.03149,-0.256889 -1.56011,-0.267167 -0.19071,-0.0037 -0.3837,0.0086 -0.57103,-0.02739 -0.007,-0.0013 -0.0131,-0.0037 -0.0196,-0.0046 -0.0126,0.0048 -0.0255,0.0095 -0.0388,0.01395 -0.2175,0.07381 -0.15594,0.05554 -0.31677,0.09715 0.10548,1.65033 0.36761,3.290613 0.78548,4.890657 0.51651,1.977812 1.27554,3.907269 2.40502,5.611027 1.31578,1.984763 3.18644,3.670161 5.45031,4.408517 2.17599,0.709669 4.52723,0.50688 6.81354,0.400492 1.01464,-0.04721 2.03009,-0.07388 3.04581,-0.0801 l 1.68362,-8.09563 -0.72141,-0.561206 0.12765,-0.247014 c -0.15223,-0.04893 -0.30425,-0.09883 -0.45527,-0.151411 -0.20593,0.09331 -0.41765,0.173707 -0.63459,0.238228 -0.18646,0.05545 -0.37561,0.100292 -0.56069,0.160197 -0.93575,0.302881 -1.70452,0.966824 -2.56522,1.442806 -0.39198,0.216774 -0.8096,0.396625 -1.25108,0.472322 -0.44149,0.0757 -0.91023,0.04224 -1.31414,-0.151412 -0.3432,-0.164539 -0.62664,-0.43771 -0.84594,-0.748791 -0.2193,-0.311081 -0.37821,-0.660438 -0.51676,-1.014925 -0.42929,-1.098316 -0.67419,-2.268536 -0.72141,-3.446818 l -0.56069,-1.282609 7.69463,-10.339938 z" /><path
       style="opacity:1;fill:#000000;fill-opacity:1;stroke:#000000;stroke-width:0.264999;stroke-dasharray:none;stroke-opacity:1"
       d="m 119.03279,62.522274 2.88564,-6.893483 0.88172,-0.480939 -3.28643,7.695049 z"
       id="path13253" /><path
       style="opacity:1;fill:none;fill-opacity:1;stroke:#000000;stroke-width:0.264999;stroke-dasharray:none;stroke-opacity:1"
       d="m 118.15106,47.853586 c -0.2721,-0.248779 -0.44533,-0.602882 -0.47474,-0.970394 -0.0294,-0.367512 0.0853,-0.744653 0.31443,-1.033526 0.25761,-0.324833 0.64325,-0.527909 1.04204,-0.641254 0.7109,-0.202056 1.48123,-0.140851 2.18183,0.09443 0.70061,0.235284 1.33604,0.637636 1.90616,1.107919 0.98434,0.811963 1.81159,1.879537 2.08408,3.126115 0.21177,0.9688 0.0729,2.00035 -0.32803,2.907362 -0.40093,0.907012 -1.05545,1.691403 -1.83621,2.302827 -0.55785,0.436865 -1.18161,0.789422 -1.8436,1.042037"
       id="path13255"
       inkscape:path-effect="#path-effect13257"
       inkscape:original-d="m 118.15106,47.853586 c -0.0532,-0.667708 -0.10661,-1.335683 -0.16031,-2.00392 -0.0537,-0.668237 0.69495,-0.427238 1.04204,-0.641254 0.34708,-0.214017 2.72559,0.801833 4.08799,1.202351 1.3624,0.400521 1.38965,2.084342 2.08408,3.126115 0.69442,1.041774 -1.44256,3.473723 -2.16424,5.210189 -0.72167,1.736465 -1.2288,0.694957 -1.8436,1.042037" /><path
       style="opacity:1;fill:none;fill-opacity:1;stroke:#000000;stroke-width:0.264999;stroke-dasharray:none;stroke-opacity:1"
       d="m 120.15498,49.296407 c 0.16168,-0.279308 0.44151,-0.487606 0.75546,-0.562357 0.31396,-0.07475 0.65763,-0.0149 0.92783,0.161574 0.2465,0.160997 0.42765,0.412351 0.52717,0.68944 0.0995,0.277088 0.12049,0.578705 0.0866,0.871171 -0.0677,0.584931 -0.34525,1.121627 -0.6138,1.64566 -0.32698,0.638049 -0.64763,1.279345 -0.96188,1.923761"
       id="path13259"
       inkscape:path-effect="#path-effect13261"
       inkscape:original-d="m 120.15498,49.296407 c 0.56136,-0.133329 1.12246,-0.266925 1.68329,-0.400783 0.56083,-0.133858 2.7e-4,2.137777 0,3.206271 -2.6e-4,1.06849 -0.64099,1.282771 -0.96188,1.923761" /><g
       id="g28552"
       style="fill:#ffffff;fill-opacity:1;stroke:none;stroke-opacity:1"
       transform="translate(3.8475245,-15.919265)"><path
         style="opacity:1;fill:#ffffff;fill-opacity:1;stroke:none;stroke-width:0.264999;stroke-dasharray:none;stroke-opacity:1"
         d="m 121.51765,98.111875 2.4047,-10.580693 0.40078,0.561097 10.5807,-20.920914 0.48094,-0.08016 5.3705,4.568936 -0.0802,1.042038 11.30211,6.011757 4.64909,4.328466 c 0,0 2.77903,3.099658 4.16815,4.649092 1.38912,1.549432 2.67216,5.237173 4.00784,7.855363 1.33568,2.618189 2.13054,7.340523 3.19541,11.010393 1.06487,3.66987 2.41858,9.5224 3.62748,14.28321 1.20889,4.7608 0.52927,2.94759 0.79351,4.42099 0.26424,1.4734 0.60485,5.21477 0.90687,7.82176 0.30203,2.60698 0.37813,3.09873 0.56679,4.6477 0.18867,1.54898 1.13359,13.37634 1.13359,13.37634 l -0.79351,6.46145 -47.8374,1.24695 0.34007,-7.02825 c 0,0 6.8018,1.36057 10.20229,2.04046 3.4005,0.67989 1.81401,0.15141 2.72061,0.22672 0.90661,0.0753 1.66286,-1.96462 2.4939,-2.94733 0.83103,-0.98271 2.94759,-5.06309 4.42099,-7.59504 1.4734,-2.53194 2.94733,-3.8542 2.94733,-3.8542 l -8.61527,-1.02023 h -3.96756 l -3.62748,-0.68015 -3.51412,-1.81374 -3.17404,-0.68015 0.34007,-6.80153 -0.68015,-2.94733 -0.22672,-7.93511 -3.06069,-2.26718 3.06069,-4.98778 -0.45344,-2.26718 0.68016,-2.26717 -3.06069,-6.688174 z"
         id="path16960" /><path
         style="opacity:1;fill:#ffffff;fill-opacity:1;stroke:none;stroke-width:0.267726;stroke-dasharray:none;stroke-opacity:1"
         d="m 174.10048,156.78662 -3.59987,25.00891 c -4.46082,1.17186 -9.35851,0.58669 -13.41768,-1.60313 -3.55934,-1.92017 -6.37058,-4.93934 -9.33768,-7.68747 -2.96711,-2.74814 -6.32355,-5.35125 -10.29798,-6.0995 -1.72513,-0.32478 -3.50036,-0.28446 -5.234,-0.5603 -0.86681,-0.13792 -1.72631,-0.35669 -2.52138,-0.72852 -0.79507,-0.37183 -1.52581,-0.90225 -2.06244,-1.59682 -0.55593,-0.71956 -0.89092,-1.60747 -0.94881,-2.51492 -0.0579,-0.90746 0.16155,-1.83074 0.62154,-2.61511"
         id="path28517"
         inkscape:path-effect="#path-effect28519"
         inkscape:original-d="m 174.10048,156.78662 -3.59987,25.00891 c 0,0 -8.94486,-1.06849 -13.41768,-1.60313 -4.47284,-0.53465 -13.09017,-9.19105 -19.63566,-13.78697 -6.54548,-4.59591 -6.54494,-1.92349 -9.81782,-2.88564 -3.27288,-0.96214 -0.21791,-3.41976 -0.32727,-5.13003" /></g><path
       style="opacity:1;fill:#282214;fill-opacity:1;stroke:none;stroke-width:0.264999;stroke-dasharray:none;stroke-opacity:1"
       d="m 67.555159,102.72975 -11.109161,23.57862 -0.226719,1.81374 3.400764,2.83397 27.092748,0.45344 7.141604,-26.63931 z"
       id="path25101" /><path
       style="opacity:1;fill:#d5c8a9;fill-opacity:1;stroke:none;stroke-width:0.264999;stroke-dasharray:none;stroke-opacity:1"
       d="m 126.89847,100.23585 -11.39255,3.40077 -6.12138,0.51011 -11.675946,2.38054 -6.971567,-0.5668 -5.214504,0.0567 -6.404769,0.22672 c 0,0 -1.548974,2.30523 -2.323856,3.45744 -0.774883,1.15222 -0.188667,1.43614 -0.283398,2.15382 -0.09473,0.71767 8.955344,-0.85019 8.955344,-0.85019 l 1.643703,-0.5668 c 0,0 2.343012,0.52928 3.514122,0.79352 1.171109,0.26423 0.113622,0.37812 0.170039,0.56679 0.05642,0.18866 -0.755462,0.64263 -1.133588,0.96355 -0.378127,0.32092 -0.75546,0.34034 -1.133589,0.51011 -0.378127,0.16978 6.291413,2.4939 6.291413,2.4939 l 7.878436,-2.72061 7.25496,0.45343 17.06049,-0.73683 3.40076,-0.90687 -0.39675,-9.40878 z"
       id="path25099" /><path
       style="opacity:1;fill:#d5c8a9;fill-opacity:1;stroke:none;stroke-width:0.271126;stroke-dasharray:none;stroke-opacity:1"
       d="m 153.09941,123.73199 -7.37442,11.74688 c 0,0 -0.96162,1.90215 -1.44283,2.85282 -0.4812,0.95066 -2.7785,2.7e-4 -4.16815,0 -1.38965,-2.9e-4 -12.66477,-3.85969 -12.66477,-3.85969 l -16.51229,-4.53095 -14.909151,-4.36312 c 0,0 -1.389118,-0.22348 -2.084075,-0.33563 -0.694958,-0.11215 -0.961618,0.3359 -1.442824,0.50344 -0.481203,0.16754 -2.297562,-0.22347 -3.44674,-0.33562 -1.149178,-0.11216 -2.190686,-0.78285 -3.286426,-1.17469 -1.09574,-0.39184 -2.083811,-0.72692 -3.126113,-1.09079 -1.042303,-0.36387 -1.228807,-0.2794 -1.843606,-0.41952 -0.614799,-0.14013 -0.694428,-0.89473 -1.042038,-1.34251 -0.34761,-0.44778 -0.64099,-0.11159 -0.961882,-0.1678 -0.320892,-0.0562 -1.549432,-0.16754 -2.324545,-0.25172 -0.775112,-0.0842 -0.908179,1.28683 -1.362665,1.92984 -0.454488,0.643 -0.961617,-0.16754 -1.442823,-0.25172 -0.481203,-0.0842 -0.3738,-1.39816 -0.561096,-2.09766 -0.187296,-0.69949 0.908708,-1.39816 1.362665,-2.09766 0.453956,-0.69949 -1.603135,0.33563 -1.603135,0.33563 l -1.042037,0.92297 -0.721413,1.51032 c 0,0 -0.747863,-0.27942 -1.122193,-0.41954 -0.37433,-0.14012 -0.160049,-1.39816 -0.240472,-2.09766 -0.08042,-0.69949 0.641519,-1.17441 0.961882,-1.76203 0.320363,-0.58762 1.603134,-1.76203 1.603134,-1.76203 l 1.683293,-3.85969 2.565016,-0.084 6.653011,-1.09077 c 0,0 1.496526,-0.0557 2.244389,-0.084 0.747866,-0.0283 0.962147,0.72745 1.442823,1.09078 0.480674,0.36332 2.511843,1.39871 3.767368,2.09765 1.255525,0.69894 2.83247,1.2309 4.248309,1.84594 1.415835,0.61503 1.389647,0.22403 2.084075,0.33563 0.694425,0.11159 1.656837,0.39184 2.484858,0.58734 0.828021,0.19551 4.008101,0.83934 6.011751,1.25859 2.00366,0.41926 5.61124,1.17497 8.41646,1.76203 2.80522,0.58707 4.54248,0.1681 6.81333,0.25172 2.27084,0.0836 4.06154,0.27997 6.09191,0.41954 2.03037,0.13957 4.59592,0.11215 6.89348,0.16781 2.29757,0.0557 19.39794,3.85969 19.39794,3.85969 z"
       id="path25066" /><path
       style="opacity:1;fill:#363636;fill-opacity:1;stroke:none;stroke-width:0.264999;stroke-dasharray:none;stroke-opacity:1"
       d="m 38.421952,110.77822 14.509924,1.58702 -8.388551,17.45726 -16.096946,-8.16183 z"
       id="path26787" /><path
       style="opacity:1;fill:#282214;fill-opacity:1;stroke:none;stroke-width:0.264999;stroke-dasharray:none;stroke-opacity:1"
       d="M 30.486838,66.114863 50.097906,56.025933 61.320424,97.401882 47.037219,118.48661 44.08989,119.39349 Z"
       id="path25265" /><path
       style="opacity:1;fill:#ffffff;fill-opacity:1;stroke:none;stroke-width:0.264999;stroke-dasharray:none;stroke-opacity:1"
       d="M 34.794472,67.928603 46.697142,112.36524 59.506685,94.907992 49.871189,59.199978 Z"
       id="path25267" /><path
       style="opacity:1;fill:#282214;fill-opacity:1;stroke:none;stroke-width:0.264999;stroke-dasharray:none;stroke-opacity:1"
       d="m 41.709356,109.64463 -6.574808,9.0687 6.688166,0.45344 1.813743,-3.74084 z"
       id="path26783" /></g></svg>
