<?xml version="1.0" encoding="UTF-8"?>
<svg version="1.1" xmlns="http://www.w3.org/2000/svg" width="1080" height="1080">
<path d="M0 0 C3.97443891 0.01073381 7.94842605 0.00002128 11.92285156 -0.01269531 C34.29217351 -0.0262694 56.41272656 1.24742468 78.54003906 4.57324219 C79.27412994 4.68123138 80.00822083 4.78922058 80.76455688 4.90048218 C94.26894115 6.89112215 107.66212965 9.23715577 120.97753906 12.26074219 C122.15719238 12.52693359 123.3368457 12.793125 124.55224609 13.06738281 C157.03436394 20.51636855 188.49407616 30.783509 218.97753906 44.26074219 C220.03215332 44.72335449 221.08676758 45.1859668 222.17333984 45.66259766 C266.08776005 65.01902415 307.28965232 90.15362305 344.23339844 120.82080078 C346.68920643 122.84828616 349.18076774 124.83079915 351.66503906 126.82324219 C356.93451589 131.1353516 361.90918158 135.73322147 366.87988281 140.38183594 C369.41111953 142.74714029 371.9949186 145.04214116 374.60253906 147.32324219 C379.79746278 151.97898931 384.72537395 156.8991284 389.66503906 161.82324219 C390.47344238 162.62705322 391.2818457 163.43086426 392.11474609 164.2590332 C396.94246445 169.09916087 401.52180376 174.07866199 405.97753906 179.26074219 C407.43199423 180.86842591 408.88974801 182.47313933 410.35253906 184.07324219 C415.0827226 189.32278709 419.56211434 194.74510437 423.97753906 200.26074219 C424.39229492 200.77588379 424.80705078 201.29102539 425.234375 201.82177734 C480.12283371 270.11227131 519.82530057 352.46207748 539.97753906 468.26074219 C540.23857422 469.97946533 540.23857422 469.97946533 540.50488281 471.73291016 C543.62367437 493.15646958 544.30746223 514.66148607 544.23828125 536.28320312 C544.22754744 540.25764204 544.23825997 544.23162918 544.25097656 548.20605469 C544.26455065 570.57537663 542.99085657 592.69592968 539.66503906 614.82324219 C539.55704987 615.55733307 539.44906067 616.29142395 539.33779907 617.04776001 C537.3471591 630.55214428 535.00112548 643.94533278 531.97753906 657.26074219 C531.71134766 658.44039551 531.44515625 659.62004883 531.17089844 660.83544922 C518.77822248 714.87506947 498.4662015 767.28033097 469.55322266 814.67236328 C468.06692406 817.11390926 466.60630606 819.56879918 465.15332031 822.03027344 C454.9304474 839.23069216 443.14858251 855.39721956 430.97753906 871.26074219 C430.50719238 871.87675293 430.0368457 872.49276367 429.55224609 873.12744141 C424.0565761 880.3076661 418.38982401 887.18599374 412.23925781 893.81933594 C410.29817247 895.91463531 408.40769804 898.03779106 406.54003906 900.19824219 C398.58599531 909.30160878 390.32493993 918.01255613 381.79003906 926.57324219 C380.94675049 927.42112305 380.10346191 928.26900391 379.23461914 929.14257812 C374.8498502 933.51658848 370.39759421 937.74252032 365.69995117 941.77905273 C363.53714752 943.63958503 361.44816606 945.57514489 359.35253906 947.51074219 C354.3120008 952.05876984 349.0287544 956.22766314 343.66503906 960.38183594 C341.21972599 962.27850451 338.80602801 964.20621493 336.41503906 966.17089844 C327.37778954 973.58038892 317.96138701 980.25463201 308.24511719 986.74414062 C306.14423979 988.14924941 304.05174649 989.56584209 301.96191406 990.98730469 C293.4857975 996.7323012 284.83922236 1002.13178757 275.97753906 1007.26074219 C275.10935547 1007.76589355 274.24117187 1008.27104492 273.34667969 1008.79150391 C229.79792539 1034.01609893 182.95401745 1053.45146048 133.97753906 1065.26074219 C132.37168945 1065.65036133 132.37168945 1065.65036133 130.73339844 1066.04785156 C103.78287726 1072.50258904 76.57046399 1076.77126196 48.97753906 1079.26074219 C47.50895195 1079.39343506 47.50895195 1079.39343506 46.01069641 1079.52880859 C37.95357629 1080.20395673 29.95149247 1080.43493412 21.86816406 1080.46386719 C19.89817192 1080.47438866 19.89817192 1080.47438866 17.88838196 1080.48512268 C13.66809612 1080.50454275 9.44786507 1080.50955712 5.22753906 1080.51074219 C4.50885021 1080.51118404 3.79016136 1080.5116259 3.04969406 1080.51208115 C-18.4547082 1080.51901826 -39.67964008 1080.21502288 -61.02246094 1077.26074219 C-62.37881316 1077.08132613 -63.73526211 1076.90264007 -65.09179688 1076.72460938 C-84.26596064 1074.18267008 -103.18933906 1070.69326971 -122.02246094 1066.26074219 C-122.96041504 1066.04369629 -123.89836914 1065.82665039 -124.86474609 1065.60302734 C-153.6231634 1058.85799383 -182.00440129 1049.15151363 -209.02246094 1037.26074219 C-210.09995605 1036.78668945 -211.17745117 1036.31263672 -212.28759766 1035.82421875 C-262.9407225 1013.34008891 -311.06714611 983.80311411 -352.02246094 946.26074219 C-353.35198596 945.08973745 -354.68519048 943.9228939 -356.02246094 942.76074219 C-364.34883142 935.49021601 -372.4198452 928.02709711 -380.21899414 920.19458008 C-381.71551019 918.69267294 -383.21734393 917.19623156 -384.71972656 915.70019531 C-390.03092063 910.39304774 -395.16638584 904.99174332 -400.02246094 899.26074219 C-400.97205577 898.16618814 -401.9225448 897.07240907 -402.87402344 895.97949219 C-424.88141788 870.49848546 -445.0379011 843.45793786 -461.87695312 814.24414062 C-463.1876302 811.97475858 -464.51585493 809.7159766 -465.84277344 807.45605469 C-501.68081047 746.02355593 -523.37747549 677.62663711 -532.7510376 607.28723145 C-533.00525034 605.3892392 -533.26817902 603.49242008 -533.53173828 601.59570312 C-538.9715888 560.83910289 -538.65605272 515.95990142 -533.02246094 475.26074219 C-532.84304488 473.90438996 -532.66435882 472.54794101 -532.48632812 471.19140625 C-529.94438883 452.01724248 -526.45498846 433.09386406 -522.02246094 414.26074219 C-521.80541504 413.32278809 -521.58836914 412.38483398 -521.36474609 411.41845703 C-503.37280501 334.70723707 -466.15157237 261.77215336 -416.35986328 200.90234375 C-415.1385581 199.40324626 -413.93315805 197.8912268 -412.72949219 196.37792969 C-408.00030619 190.46860074 -402.99221164 184.88472308 -397.80200195 179.3815918 C-395.06868763 176.48236423 -392.40050594 173.5522387 -389.80761719 170.52636719 C-385.59856745 165.68770407 -381.07688506 161.16481484 -376.53442383 156.64233398 C-375.08721709 155.20048998 -373.64544068 153.75337103 -372.20410156 152.30566406 C-366.97925238 147.07712185 -361.63558116 142.06883891 -356.02246094 137.26074219 C-354.47764834 135.84750669 -352.93550769 134.4313381 -351.39746094 133.01074219 C-346.35692268 128.46271454 -341.07367628 124.29382123 -335.70996094 120.13964844 C-333.26464787 118.24297987 -330.85094989 116.31526944 -328.45996094 114.35058594 C-319.42271141 106.94109545 -310.00630889 100.26685236 -300.29003906 93.77734375 C-298.18916166 92.37223496 -296.09666837 90.95564229 -294.00683594 89.53417969 C-285.53071937 83.78918318 -276.88414423 78.3896968 -268.02246094 73.26074219 C-267.15427734 72.75559082 -266.28609375 72.25043945 -265.39160156 71.72998047 C-204.28701581 36.33658163 -137.87077539 14.11235996 -68.02246094 4.26074219 C-66.30373779 3.99970703 -66.30373779 3.99970703 -64.55029297 3.73339844 C-43.12673355 0.61460688 -21.62171706 -0.06918098 0 0 Z " fill="#E3BCFA" transform="translate(536.0224609375,-0.2607421875)"/>
<path d="M0 0 C-1.70644065 9.23031879 -4.05895717 18.27247761 -6.41796875 27.3515625 C-6.86746778 29.08962053 -7.31674675 30.82773549 -7.76582336 32.56590271 C-8.98167978 37.26867685 -10.2011412 41.9705092 -11.42141724 46.67213821 C-12.45426047 50.65322676 -13.48511484 54.63482932 -14.51605797 58.61641026 C-22.73925568 90.37197787 -31.01289035 122.11442915 -39.32373047 153.84716797 C-39.67471361 155.18732594 -39.67471361 155.18732594 -40.03278732 156.5545578 C-41.99679231 164.05355113 -41.99679231 164.05355113 -42.87934875 167.4227829 C-46.49136986 181.21351456 -50.08559172 195.00881054 -53.67128372 208.80640984 C-55.27391696 214.97138569 -56.87891808 221.13574556 -58.48394203 227.30009937 C-60.02040759 233.20228289 -61.55308744 239.10543286 -63.08305073 245.009305 C-64.02495716 248.64008598 -64.97056504 252.26989516 -65.91722679 255.89943886 C-66.35604084 257.5850373 -66.79328997 259.27104401 -67.22887611 260.95747948 C-67.82401046 263.26083224 -68.42462141 265.56268886 -69.02661133 267.86425781 C-69.19841164 268.53471162 -69.37021194 269.20516542 -69.54721832 269.89593601 C-71.72141127 278.14760751 -71.72141127 278.14760751 -75.625 280.75 C-76.40875 281.1625 -77.1925 281.575 -78 282 C-76.96633301 281.50822266 -75.93266602 281.01644531 -74.86767578 280.50976562 C-53.34880219 270.27346568 -31.81621734 260.06760668 -10.24768066 249.93635559 C-5.26751149 247.59674761 -0.28956264 245.25245841 4.6875 242.90625 C18.79381493 236.25778433 32.91225981 229.63888128 47.06567383 223.09106445 C59.85058675 217.16340589 72.5760191 211.11008185 85.30227661 205.05776978 C87.53158851 204.00009517 89.76384603 202.94886018 91.99658203 201.8984375 C94.48905221 200.72436509 96.95641462 199.52172444 99.42138672 198.2890625 C100.8814917 197.57363281 100.8814917 197.57363281 102.37109375 196.84375 C103.18376709 196.43318359 103.99644043 196.02261719 104.83374023 195.59960938 C107 195 107 195 109.13867188 195.75561523 C111.69002482 197.46131381 113.82779562 199.45944241 116.0625 201.5625 C119.75363459 204.9953483 123.50410259 208.27938092 127.4375 211.4375 C132.56250846 215.57411397 137.39563155 219.96319216 142.22265625 224.4375 C145.1104016 227.10186139 148.04969384 229.69380703 151.01953125 232.265625 C153.31133155 234.27264538 155.55996752 236.32402851 157.8125 238.375 C161.25378205 241.48528851 164.76321298 244.46478312 168.375 247.375 C173.51469556 251.53328269 178.36902898 255.938715 183.21484375 260.4296875 C187.4748339 264.36106691 191.83388002 268.17373677 196.265625 271.91015625 C197.00296875 272.53792969 197.7403125 273.16570312 198.5 273.8125 C199.1703125 274.37582031 199.840625 274.93914062 200.53125 275.51953125 C202 277 202 277 202 279 C201.34555908 279.2995459 200.69111816 279.5990918 200.0168457 279.90771484 C185.08629113 286.75649892 170.25545815 293.78194309 155.5 301 C143.61731801 306.81239375 131.69634964 312.5043799 119.67578125 318.02734375 C109.88197758 322.54669389 100.18886825 327.26081551 90.5 332 C78.61726626 337.81228539 66.69635147 343.50437905 54.67578125 349.02734375 C44.88197691 353.5466942 35.18887821 358.26083468 25.5 363 C13.57030781 368.83514588 1.6023326 374.55098922 -10.46484375 380.09765625 C-19.8730437 384.43823293 -29.19031506 388.9528363 -38.5 393.5 C-50.27967939 399.25305991 -62.09991015 404.88943347 -74.00927734 410.36987305 C-79.76855111 413.02349069 -85.50953259 415.70898167 -91.21875 418.46875 C-92.37938965 419.02973389 -93.5400293 419.59071777 -94.73583984 420.16870117 C-96.94624792 421.24078571 -99.1549924 422.31630907 -101.36181641 423.39575195 C-102.33812012 423.86972412 -103.31442383 424.34369629 -104.3203125 424.83203125 C-105.17898926 425.25202393 -106.03766602 425.6720166 -106.92236328 426.10473633 C-109 427 -109 427 -111 427 C-111.33 427.66 -111.66 428.32 -112 429 C-112.66 429.33 -113.32 429.66 -114 430 C-113.34 430 -112.68 430 -112 430 C-114.96708455 443.9345896 -118.43539415 457.71112454 -122.04296875 471.4921875 C-122.61806938 473.69882868 -123.19287775 475.90554604 -123.76741028 478.11233521 C-125.26510833 483.86196644 -126.76660021 489.61059988 -128.26898193 495.35900879 C-129.80330691 501.23224453 -131.33417048 507.10638221 -132.86523438 512.98046875 C-134.5841028 519.57458211 -136.3033082 526.16860573 -138.02519226 532.76193237 C-138.28543182 533.7585791 -138.54567139 534.75522583 -138.813797 535.78207397 C-139.29902642 537.64014255 -139.78442304 539.49816746 -140.27001953 541.35614014 C-140.59156258 542.58749191 -140.59156258 542.58749191 -140.91960144 543.84371948 C-141.10521731 544.55408796 -141.29083319 545.26445644 -141.48207378 545.99635124 C-141.99870842 547.99500341 -142.50212376 549.99660047 -143 552 C-140.10473159 540.92346845 -137.20952422 529.84692095 -134.31439018 518.77035427 C-132.96938786 513.62448322 -131.62436619 508.47861722 -130.27929688 503.33276367 C-122.13243806 472.16826451 -122.13243806 472.16826451 -114 441 C-110.37125817 441 -109.16383612 441.92854181 -106.125 443.859375 C-104.66163208 444.78206177 -104.66163208 444.78206177 -103.16870117 445.72338867 C-102.12302979 446.39217041 -101.0773584 447.06095215 -100 447.75 C-98.92145752 448.43231689 -97.84291504 449.11463379 -96.73168945 449.81762695 C-94.52718609 451.21300383 -92.32446532 452.61120092 -90.12353516 454.01220703 C-86.58487429 456.2641827 -83.03725099 458.50162944 -79.48828125 460.73730469 C-76.42123514 462.67048104 -73.35789135 464.60948406 -70.29443359 466.54833984 C-66.36454047 469.0347353 -62.43214817 471.51717296 -58.5 474 C-53.80741307 476.96298136 -49.11523196 479.92658804 -44.42578125 482.89453125 C-35.69730026 488.41653677 -26.95078461 493.90837626 -18.1875 499.375 C-9.52455692 504.77979002 -0.89648749 510.23614897 7.71020508 515.72998047 C14.44901074 520.02626316 21.21809063 524.27213928 28 528.5 C37.62773232 534.50268113 47.21095497 540.57203117 56.77734375 546.671875 C69.83423755 554.99717519 82.9507517 563.22607645 96.08618164 571.42675781 C103.10246302 575.80891546 110.10880975 580.20626662 117.09594727 584.63476562 C121.13920645 587.19727838 125.19124031 589.74414071 129.2578125 592.26953125 C130.1243042 592.81005127 130.9907959 593.35057129 131.88354492 593.9074707 C133.53987189 594.94028026 135.19874638 595.96901981 136.8605957 596.99291992 C140.65594377 599.36588352 144.00548135 601.61419757 147 605 C136.31147686 612.57522177 125.54695262 620.01463706 114.625 627.25 C107.24555163 632.13882679 99.97723004 637.1145586 92.8125 642.3125 C86.60886821 646.74366556 80.19862611 650.88078029 73.84423828 655.09082031 C67.06489168 659.59322452 60.38458087 664.19595387 53.8046875 668.984375 C52.41636719 669.98210937 52.41636719 669.98210937 51 671 C49.45699219 672.15242187 49.45699219 672.15242187 47.8828125 673.328125 C45 675 45 675 43.15136719 674.79858398 C40.43528795 673.79037981 38.15845067 672.42282276 35.6953125 670.89453125 C34.64802979 670.24774414 33.60074707 669.60095703 32.52172852 668.93457031 C31.38935552 668.22742192 30.25711592 667.52005989 29.125 666.8125 C27.95323755 666.0852994 26.78127872 665.35841515 25.60913086 664.63183594 C15.54024348 658.37954226 5.54082972 652.01828699 -4.44335938 645.63183594 C-8.51600188 643.03237619 -12.60111875 640.4527904 -16.6875 637.875 C-17.46383789 637.38523682 -18.24017578 636.89547363 -19.04003906 636.39086914 C-20.59175458 635.41204232 -22.14351212 634.43328213 -23.6953125 633.45458984 C-25.98545164 632.00918211 -28.27419657 630.56159316 -30.5625 629.11328125 C-39.29465047 623.58829235 -48.04523169 618.09410881 -56.8125 612.625 C-65.47320429 607.22160675 -74.09887706 601.76640211 -82.70361328 596.27441406 C-90.51096644 591.29731395 -98.35884859 586.38667661 -106.21484375 581.48681641 C-113.41278584 576.99634632 -120.59410502 572.4804257 -127.76245117 567.94287109 C-129.15943798 567.05863778 -130.55757719 566.17622168 -131.95703125 565.29589844 C-133.37857901 564.39418052 -134.79212389 563.47977299 -136.19921875 562.55566406 C-137.26076172 561.86682129 -137.26076172 561.86682129 -138.34375 561.1640625 C-138.97474609 560.74850098 -139.60574219 560.33293945 -140.25585938 559.90478516 C-142.11635785 558.769758 -142.11635785 558.769758 -145 559 C-145.29179138 560.11927383 -145.58358276 561.23854767 -145.88421631 562.39173889 C-148.6491711 572.99752231 -151.41456805 583.60319036 -154.18038559 594.20874882 C-155.60192074 599.65969816 -157.02330611 605.11068647 -158.44433594 610.56176758 C-159.81856724 615.83330568 -161.19320926 621.10473654 -162.56812286 626.37609673 C-163.08968651 628.37603465 -163.61110812 630.37600963 -164.13237762 632.37602425 C-164.38161232 633.33225622 -164.63084702 634.2884882 -164.88763428 635.2736969 C-165.13071445 636.20686454 -165.37379463 637.14003218 -165.62424088 638.10147762 C-166.09590486 639.90686714 -166.56973954 641.71169123 -167.04595566 643.51588535 C-168.10643822 647.53637816 -169.142342 651.55759131 -170.09875488 655.60421753 C-170.26991947 656.30561828 -170.44108406 657.00701902 -170.61743546 657.72967434 C-171.06692931 659.57794197 -171.50049603 661.43006334 -171.93267822 663.28245544 C-173 666 -173 666 -174.76071548 667.1116848 C-177.16523524 668.06554816 -179.33991942 668.53490427 -181.89587402 668.93058777 C-182.88004807 669.08623703 -183.86422211 669.24188629 -184.8782196 669.4022522 C-185.95159073 669.56494598 -187.02496185 669.72763977 -188.13085938 669.89526367 C-189.26618607 670.07272629 -190.40151276 670.2501889 -191.57124329 670.43302917 C-195.32771459 671.01822365 -199.08563281 671.59344612 -202.84375 672.16796875 C-205.4516757 672.57070639 -208.05954446 672.97381291 -210.6673584 673.37727356 C-216.13409397 674.22188294 -221.60170567 675.06063504 -227.06982422 675.89624023 C-233.39006822 676.86216604 -239.70860301 677.83872284 -246.02637434 678.8206808 C-252.1068165 679.76538129 -258.18858456 680.70124611 -264.27095032 681.63347816 C-266.8581458 682.03101027 -269.44497145 682.43095693 -272.03141785 682.83333397 C-275.64287826 683.39411944 -279.25573323 683.9448405 -282.86914062 684.49291992 C-283.94251175 684.6616864 -285.01588287 684.83045288 -286.1217804 685.0043335 C-287.10595444 685.15152328 -288.09012848 685.29871307 -289.10412598 685.45036316 C-289.95804176 685.5814255 -290.81195755 685.71248785 -291.69174957 685.84752178 C-294.04625246 686.00305534 -295.76205339 685.70593056 -298 685 C-286.04352731 638.54899868 -274.06043131 592.10505031 -261.94041824 545.69641113 C-261.18915067 542.81882257 -260.43858484 539.94105179 -259.6882019 537.06323242 C-258.50717822 532.53441549 -257.32420688 528.00611179 -256.13965607 523.47821617 C-255.70785444 521.82671027 -255.27662467 520.17505472 -254.84603119 518.52323341 C-253.58235486 513.67708781 -252.30153593 508.83612429 -251 504 C-250.58008537 502.42255005 -250.58008537 502.42255005 -250.15168762 500.81323242 C-249.89989243 499.91233887 -249.64809723 499.01144531 -249.38867188 498.08325195 C-249.18197876 497.33469437 -248.97528564 496.58613678 -248.7623291 495.81489563 C-247.45416975 492.70052852 -245.29230789 491.70714941 -242.3125 490.375 C-241.31863281 489.90835937 -240.32476562 489.44171875 -239.30078125 488.9609375 C-238.54152344 488.64382813 -237.78226562 488.32671875 -237 488 C-238.28913487 488.67154933 -239.58140204 489.33708859 -240.875 490 C-241.59429687 490.37125 -242.31359375 490.7425 -243.0546875 491.125 C-245 492 -245 492 -247 492 C-244.02758871 479.12131975 -240.8395116 466.30428632 -237.5625 453.5 C-237.17824356 451.99548279 -237.17824356 451.99548279 -236.78622437 450.46057129 C-232.19096145 432.47875503 -227.46075615 414.53413493 -222.67089844 396.60327148 C-220.14778769 387.14998039 -217.64822728 377.69287319 -215.25 368.20703125 C-215.03901169 367.37462921 -214.82802338 366.54222717 -214.61064148 365.68460083 C-213.63564182 361.83401119 -212.66832537 357.9817692 -211.71411133 354.12597656 C-211.37865022 352.7935613 -211.04297136 351.46120083 -210.70703125 350.12890625 C-210.4231958 348.98494385 -210.13936035 347.84098145 -209.84692383 346.66235352 C-209 344 -209 344 -207 342 C-207.495 340.515 -207.495 340.515 -208 339 C-207.44433212 336.22314694 -206.80721793 333.54390295 -206.07592773 330.81274414 C-205.74801743 329.54858925 -205.74801743 329.54858925 -205.41348267 328.25889587 C-204.67810092 325.43218496 -203.93083171 322.60875416 -203.18359375 319.78515625 C-202.65927716 317.77960232 -202.1356978 315.77385553 -201.61280823 313.76792908 C-200.19394823 308.33329291 -198.76484667 302.90139621 -197.33398438 297.46990967 C-195.82919374 291.75041439 -194.33402368 286.02840544 -192.83789062 280.30664062 C-190.09545771 269.82404798 -187.34521532 259.34352398 -184.5912838 248.86394691 C-181.81678174 238.30534425 -179.04987624 227.74476135 -176.28515625 217.18359375 C-175.39620125 213.78815622 -174.50719455 210.39273222 -173.61816406 206.99731445 C-173.40147757 206.16969447 -173.18479107 205.34207449 -172.96153831 204.48937511 C-171.42988 198.63992363 -169.89638677 192.7909549 -168.36230469 186.94213867 C-163.27623059 167.54767495 -158.21187014 148.14766413 -153.16796875 128.7421875 C-152.87733677 127.62405922 -152.58670479 126.50593094 -152.28726578 125.35391998 C-149.42909695 114.35696885 -146.57257116 103.35959214 -143.71847343 92.36158371 C-134.08446339 55.23955176 -134.08446339 55.23955176 -129.39333534 37.44418716 C-129.00253292 35.96100499 -128.61243003 34.47763829 -128.22307396 32.99407578 C-127.69690531 30.99041398 -127.16789115 28.98752729 -126.63793945 26.98486328 C-126.34369583 25.86927032 -126.04945221 24.75367737 -125.74629211 23.60427856 C-125 21 -125 21 -124 19 C-121.28895569 18.33126831 -121.28895569 18.33126831 -117.59399414 17.73388672 C-116.91839636 17.62234379 -116.24279858 17.51080086 -115.54672813 17.39587784 C-113.27339386 17.02320337 -110.99816459 16.66383099 -108.72265625 16.3046875 C-107.10554396 16.04312374 -105.48852617 15.78097519 -103.87159729 15.51828003 C-98.58345413 14.66354252 -93.29209542 13.82986879 -88 13 C-87.10555931 12.85949722 -86.21111862 12.71899445 -85.28957367 12.57423401 C-72.29839088 10.53532517 -59.30044657 8.54168993 -46.3001709 6.56170654 C-42.40943168 5.96816599 -38.51923711 5.37109499 -34.62902737 4.77409554 C-30.85904097 4.19599533 -27.08873112 3.62002852 -23.31831551 3.04473495 C-21.53160768 2.77186712 -19.74499903 2.49834906 -17.95849419 2.22415543 C-15.49666196 1.84664565 -13.03441111 1.4719988 -10.57202148 1.09814453 C-9.84455215 0.9860112 -9.11708282 0.87387787 -8.36756897 0.75834656 C-5.54237736 0.33195202 -2.86244872 0 0 0 Z " fill="#FEFEFE" transform="translate(684,197)"/>
<path d="M0 0 C9.74487568 5.94526819 19.01666418 12.55409709 28.34179688 19.12841797 C31.77981012 21.54904706 35.22574629 23.95823817 38.67211914 26.36694336 C46.32061968 31.71265358 53.95371849 37.0796004 61.57373047 42.46582031 C69.51479808 48.07585409 77.48365319 53.64610235 85.45166016 59.21777344 C90.46660744 62.72506556 95.47944858 66.23536713 100.49267578 69.74511719 C104.69623647 72.6878564 108.90032141 75.62984094 113.10546875 78.5703125 C121.60810465 84.51694129 130.10090706 90.47678902 138.57373047 96.46582031 C145.66383323 101.47468284 152.77623098 106.45150614 159.890625 111.42578125 C163.27855471 113.79461446 166.663863 116.167118 170.046875 118.54296875 C181.30721188 126.44695364 192.62726927 134.25860321 204 142 C203.3397164 147.33147774 202.23143604 152.40635884 200.87036133 157.59960938 C200.65552094 158.43175461 200.44068054 159.26389984 200.21932983 160.1212616 C199.51050424 162.86303956 198.79630262 165.60338617 198.08203125 168.34375 C197.58184248 170.27396338 197.08198567 172.2042628 196.58244324 174.13464355 C195.26471174 179.2229857 193.942398 184.31012622 192.61914062 189.39703369 C191.29470967 194.49182373 189.97471406 199.5877623 188.65429688 204.68359375 C183.78728651 223.46034035 178.90656733 242.23354821 174 261 C170.62616613 261 169.93746049 260.52046905 167.25390625 258.6484375 C166.50955322 258.13418213 165.7652002 257.61992676 164.99829102 257.09008789 C164.19447998 256.52410889 163.39066895 255.95812988 162.5625 255.375 C161.72066162 254.79032959 160.87882324 254.20565918 160.01147461 253.60327148 C157.33606725 251.74245246 154.66773568 249.8717963 152 248 C150.33362515 246.83682142 148.66696493 245.67405153 147 244.51171875 C142.83813927 241.60648633 138.68289705 238.69192838 134.52929688 235.77490234 C131.13745253 233.39471814 127.74137368 231.02061167 124.34545898 228.64624023 C116.69223254 223.29451417 109.05226271 217.92462742 101.42626953 212.53417969 C93.48520192 206.92414591 85.51634681 201.35389765 77.54833984 195.78222656 C72.53339256 192.27493444 67.52055142 188.76463287 62.50732422 185.25488281 C58.30376353 182.3121436 54.09967859 179.37015906 49.89453125 176.4296875 C41.39189535 170.48305871 32.89909294 164.52321098 24.42626953 158.53417969 C16.48520192 152.92414591 8.51634681 147.35389765 0.54833984 141.78222656 C-4.46660744 138.27493444 -9.47944858 134.76463287 -14.49267578 131.25488281 C-18.69623647 128.3121436 -22.90032141 125.37015906 -27.10546875 122.4296875 C-35.60810465 116.48305871 -44.10090706 110.52321098 -52.57373047 104.53417969 C-61.36140456 98.32605367 -70.18234118 92.16542074 -79 86 C-82.6044634 83.4795906 -86.20857368 80.95867728 -89.8125 78.4375 C-90.63016846 77.86596191 -91.44783691 77.29442383 -92.2902832 76.70556641 C-96.87866344 73.49565112 -101.44907259 70.26281444 -106 67 C-101.65618576 62.06549972 -96.55127989 59.16954723 -90.875 55.9375 C-83.68613775 51.76979484 -76.56448406 47.53757654 -69.5625 43.0625 C-62.6339931 38.64319655 -55.65195925 34.32359086 -48.625 30.0625 C-32.33092938 20.17959069 -16.14857773 10.11855719 0 0 Z " fill="#FEFEFE" transform="translate(311,240)"/>
</svg>
